<?xml version="1.0" encoding="utf-8"?>
<!-- Generator: Adobe Illustrator 18.1.1, SVG Export Plug-In . SVG Version: 6.00 Build 0)  -->
<svg version="1.1" id="Layer_1" xmlns="http://www.w3.org/2000/svg" xmlns:xlink="http://www.w3.org/1999/xlink" x="0px" y="0px"
	 viewBox="0 0 41.8 15.6" enable-background="new 0 0 41.8 15.6" xml:space="preserve">
<g>
	<defs>
		<rect id="SVGID_1_" x="13.1" y="0.1" width="15.5" height="15.5"/>
	</defs>
	<clipPath id="SVGID_2_">
		<use xlink:href="#SVGID_1_"  overflow="visible"/>
	</clipPath>
	<g clip-path="url(#SVGID_2_)">
		<path fill="#0F1027" d="M18.3,7.1c0,0-0.1,0.1-0.1,0.1H17L16.7,7h-0.6V6.8h0.7l0.3,0.3H18.3z"/>
	</g>
	<g clip-path="url(#SVGID_2_)">
		<path fill="#101D42" d="M18.5,7.2v0.1h-0.1C18.4,7.2,18.5,7.2,18.5,7.2"/>
	</g>
	<g clip-path="url(#SVGID_2_)">
		<polygon fill="#0F1027" points="16.2,6.8 16.1,6.7 15.8,6.7 15.7,6.9 15.8,7.1 16.1,7.1 16.2,7 16.2,6.9 		"/>
	</g>
	<g clip-path="url(#SVGID_2_)">
		<polygon fill="#0F1027" points="18,8.1 17.8,8.1 17.6,8.1 17,8.1 16.7,8.4 16.2,8.4 16.1,8.4 16.1,8.6 16.2,8.6 16.8,8.6 
			17.1,8.2 17.7,8.2 17.8,8.2 18.1,8.2 		"/>
	</g>
	<g clip-path="url(#SVGID_2_)">
		<path fill="#0F1027" d="M16.2,8.4l-0.1-0.2h-0.3l-0.1,0.2l0.1,0.2h0.3l0.1-0.2L16.2,8.4L16.2,8.4z M16,8.6h-0.1l-0.1-0.1l0.1-0.1
			H16l0.1,0.1L16,8.6z"/>
	</g>
	<g clip-path="url(#SVGID_2_)">
		<rect x="16.4" y="7.7" fill="#101D42" width="1.1" height="0.1"/>
	</g>
	<g clip-path="url(#SVGID_2_)">
		<polygon fill="#38C0F0" points="16.4,7.7 16.3,7.5 16.1,7.5 16,7.7 16.1,7.9 16.3,7.9 16.4,7.8 16.4,7.7 		"/>
	</g>
	<g clip-path="url(#SVGID_2_)">
		<path fill="#38C0F0" d="M16.3,8h-0.2c0,0-0.1,0-0.1,0l-0.1-0.2c0,0,0-0.1,0-0.1L16,7.5c0,0,0,0,0.1,0h0.2c0,0,0.1,0,0.1,0l0.1,0.2
			c0,0,0,0.1,0,0.1L16.3,8C16.4,8,16.4,8,16.3,8z M16.1,7.9h0.2l0.1-0.1l-0.1-0.1h-0.2L16,7.7L16.1,7.9z"/>
	</g>
	<g clip-path="url(#SVGID_2_)">
		<path fill="#101D42" d="M23.3,7.3h-0.2V7.1h0C23.2,7.2,23.2,7.2,23.3,7.3"/>
	</g>
	<g clip-path="url(#SVGID_2_)">
		<path fill="#0F1027" d="M25.5,6.8V7h-0.6l-0.3,0.3h-1.1c0,0-0.1-0.1-0.1-0.1h1.1l0.3-0.3H25.5z"/>
	</g>
	<g clip-path="url(#SVGID_2_)">
		<polygon fill="#0F1027" points="25.8,6.7 25.5,6.7 25.4,6.8 25.4,6.9 25.4,7 25.5,7.1 25.8,7.1 25.9,6.9 		"/>
	</g>
	<g clip-path="url(#SVGID_2_)">
		<path fill="#0F1027" d="M25.5,8.4v0.1h-0.7l-0.3-0.3h-1c0,0,0-0.1,0-0.1h1l0.3,0.3H25.5z"/>
	</g>
	<g clip-path="url(#SVGID_2_)">
		<path fill="#0F1027" d="M25.8,8.3h-0.3l-0.1,0.2l0,0.1l0,0.1l0.1,0.2h0.3l0.1-0.2L25.8,8.3z M25.7,8.6h-0.1l-0.1-0.1l0.1-0.1h0.1
			l0.1,0.1L25.7,8.6z"/>
	</g>
	<g clip-path="url(#SVGID_2_)">
		<rect x="24.1" y="7.7" fill="#0F1027" width="1.1" height="0.1"/>
	</g>
	<g clip-path="url(#SVGID_2_)">
		<polygon fill="#38C0F0" points="25.5,7.5 25.3,7.5 25.2,7.7 25.2,7.7 25.2,7.8 25.3,7.9 25.5,7.9 25.7,7.7 		"/>
	</g>
	<g clip-path="url(#SVGID_2_)">
		<path fill="#38C0F0" d="M25.5,8h-0.2c0,0-0.1,0-0.1,0l-0.1-0.2c0,0,0-0.1,0-0.1l0.1-0.2c0,0,0,0,0.1,0h0.2c0,0,0.1,0,0.1,0
			l0.1,0.2c0,0,0,0.1,0,0.1L25.5,8C25.6,8,25.6,8,25.5,8z M25.3,7.9h0.2l0.1-0.1l-0.1-0.1h-0.2l-0.1,0.1L25.3,7.9z"/>
	</g>
	<g clip-path="url(#SVGID_2_)">
		<path fill="#FFFFFF" d="M24.1,5.2c0-0.1,0-0.1,0-0.2c0.1-0.4-0.2-0.7-0.6-0.8c0,0-0.1,0-0.1,0c-0.1-0.3-0.3-0.5-0.6-0.6
			c-0.3,0-0.5,0.1-0.7,0.2c-0.1-0.1-0.3-0.2-0.4-0.2c-0.4-0.1-0.7,0.2-0.8,0.6v2.4h3.2c0.2-0.1,0.3-0.3,0.3-0.6
			C24.5,5.8,24.3,5.4,24.1,5.2"/>
	</g>
	<g clip-path="url(#SVGID_2_)">
		<path fill="#0F1027" d="M24.1,6.7C24.1,6.7,24.1,6.7,24.1,6.7C24,6.7,24,6.6,24.1,6.6c0.1-0.1,0.2-0.3,0.3-0.5
			c0-0.3-0.1-0.6-0.3-0.8c0,0,0-0.1,0-0.1c0,0,0-0.1,0-0.2c0-0.2,0-0.3-0.1-0.5c-0.1-0.1-0.2-0.2-0.4-0.2c0,0-0.1,0-0.1,0
			c0,0-0.1,0-0.1-0.1c-0.1-0.3-0.3-0.5-0.6-0.5c-0.2,0-0.5,0-0.6,0.2c0,0,0,0-0.1,0c0,0,0,0-0.1,0c-0.1-0.1-0.2-0.2-0.4-0.2
			c-0.2,0-0.3,0-0.5,0.1C21.1,4,21,4.1,21,4.3v2.4c0,0,0,0.1-0.1,0.1s-0.1,0-0.1-0.1V4.3c0,0,0,0,0,0c0-0.2,0.1-0.4,0.3-0.5
			c0.2-0.1,0.4-0.2,0.6-0.1c0.2,0,0.3,0.1,0.4,0.2c0.2-0.2,0.4-0.2,0.7-0.2c0.3,0,0.6,0.3,0.7,0.6c0,0,0,0,0.1,0
			c0.4,0.1,0.7,0.5,0.6,0.9c0,0,0,0.1,0,0.1c0.2,0.2,0.4,0.6,0.3,0.9C24.5,6.3,24.4,6.6,24.1,6.7C24.2,6.7,24.1,6.7,24.1,6.7z"/>
	</g>
	<g clip-path="url(#SVGID_2_)">
		<path fill="#0F1027" d="M20.9,6.1C20.9,6.1,20.9,6.1,20.9,6.1c-0.1,0-0.1-0.1-0.1-0.1c0.1-0.2,0.3-0.3,0.5-0.4
			c0.2,0,0.4,0,0.6,0.1c0,0,0,0.1,0,0.1c0,0-0.1,0-0.1,0c-0.1-0.1-0.3-0.1-0.4-0.1C21.2,5.8,21.1,5.9,20.9,6.1
			C21,6.1,21,6.1,20.9,6.1z"/>
	</g>
	<g clip-path="url(#SVGID_2_)">
		<path fill="#0F1027" d="M21.6,4.6C21.6,4.6,21.6,4.6,21.6,4.6c-0.1-0.1-0.1-0.1,0-0.2c0.1,0,0.2-0.1,0.3-0.2C22,4.2,22,4.1,22.1,4
			c0,0,0-0.1,0.1-0.1c0,0,0.1,0,0.1,0.1c0,0.2-0.1,0.3-0.2,0.4C21.9,4.5,21.8,4.6,21.6,4.6C21.6,4.6,21.6,4.6,21.6,4.6z"/>
	</g>
	<g clip-path="url(#SVGID_2_)">
		<path fill="#0F1027" d="M23.7,5.5C23.7,5.5,23.7,5.5,23.7,5.5c-0.3,0-0.4-0.1-0.6-0.3c0,0,0-0.1,0-0.1c0,0,0.1,0,0.1,0
			c0.1,0.1,0.2,0.2,0.4,0.2c0.1,0,0.3,0,0.4-0.1c0,0,0.1,0,0.1,0c0,0,0,0.1,0,0.1C24,5.4,23.9,5.5,23.7,5.5z"/>
	</g>
	<g clip-path="url(#SVGID_2_)">
		<path fill="#0F1027" d="M22.8,5.9C22.8,5.9,22.7,5.9,22.8,5.9c-0.1-0.2-0.2-0.4-0.3-0.5c-0.1-0.1-0.3-0.2-0.5-0.2
			c0,0-0.1,0-0.1-0.1c0,0,0-0.1,0.1-0.1c0.2,0,0.4,0.1,0.6,0.2C22.8,5.4,22.9,5.6,22.8,5.9C22.9,5.9,22.9,5.9,22.8,5.9
			C22.8,5.9,22.8,5.9,22.8,5.9z"/>
	</g>
	<g clip-path="url(#SVGID_2_)">
		<path fill="#0F1027" d="M22.7,4.8C22.6,4.8,22.6,4.7,22.7,4.8c-0.1-0.3,0.1-0.5,0.3-0.6c0,0,0.1,0,0.1,0c0,0,0,0.1,0,0.1
			C22.8,4.4,22.7,4.5,22.7,4.8C22.7,4.7,22.7,4.8,22.7,4.8C22.7,4.8,22.7,4.8,22.7,4.8z"/>
	</g>
	<g clip-path="url(#SVGID_2_)">
		<path fill="#0F1027" d="M21,5.2c0,0-0.1,0-0.1,0c0,0-0.1-0.1-0.1-0.1c0,0,0.1-0.1,0.1-0.1c0.1,0,0.1,0,0.2,0
			c0.1,0,0.1-0.1,0.1-0.1c0,0,0.1,0,0.1,0c0,0,0,0.1,0,0.1c0,0.1-0.1,0.1-0.2,0.2C21.1,5.2,21.1,5.2,21,5.2z"/>
	</g>
	<g clip-path="url(#SVGID_2_)">
		<path fill="#0F1027" d="M18.7,9.2L18.7,9.2c-0.8,0-1.5-0.7-1.5-1.5V7h3v0.7C20.2,8.5,19.6,9.2,18.7,9.2"/>
	</g>
	<g clip-path="url(#SVGID_2_)">
		<path fill="#0F1027" d="M21.4,7.4L21.4,7.4c-0.4-0.1-0.8-0.1-1.2,0V7h1.2V7.4z"/>
	</g>
	<path clip-path="url(#SVGID_2_)" fill="#0F1027" d="M22.9,9.2L22.9,9.2c0.8,0,1.5-0.7,1.5-1.5V7h-3v0.7C21.4,8.5,22.1,9.2,22.9,9.2
		"/>
	<g clip-path="url(#SVGID_2_)">
		<polygon fill="#FFFFFF" points="19.9,6.7 19.9,6.4 17.9,6.3 17.8,6.7 		"/>
	</g>
	<g clip-path="url(#SVGID_2_)">
		<path fill="#FFFFFF" d="M19.9,6.7h-2.1c0,0,0,0-0.1,0c0,0,0,0,0-0.1l0.1-0.4c0,0,0-0.1,0.1-0.1l2,0.2c0,0,0.1,0,0.1,0.1L19.9,6.7
			C19.9,6.7,19.9,6.7,19.9,6.7z M17.9,6.6h1.9l0-0.1l-1.9-0.2L17.9,6.6z"/>
	</g>
	<g clip-path="url(#SVGID_2_)">
		<polygon fill="#0F1027" points="21.7,6.7 21.7,6.4 23.7,6.3 23.8,6.7 		"/>
	</g>
	<g clip-path="url(#SVGID_2_)">
		<path fill="#0F1027" d="M23.8,6.7C23.8,6.7,23.8,6.7,23.8,6.7h-2.1c0,0-0.1,0-0.1-0.1l0-0.2c0,0,0-0.1,0.1-0.1l2-0.2
			c0,0,0.1,0,0.1,0.1L23.8,6.7C23.9,6.6,23.9,6.6,23.8,6.7C23.9,6.7,23.8,6.7,23.8,6.7z M21.8,6.6h1.9l0-0.2L21.8,6.6L21.8,6.6z"/>
	</g>
	<g clip-path="url(#SVGID_2_)">
		<path fill="#38C0F0" d="M20.4,9.1C20.4,9.1,20.4,9.1,20.4,9.1c-0.1,0-0.1-0.1-0.1-0.1c0.1-0.2,0.1-0.5,0.1-0.5c0,0,0-0.1,0.1-0.1
			c0,0,0.1,0,0.1,0.1C20.6,8.5,20.7,8.8,20.4,9.1C20.5,9.1,20.4,9.1,20.4,9.1z"/>
	</g>
	<g clip-path="url(#SVGID_2_)">
		<path fill="#38C0F0" d="M21.2,9.1C21.2,9.1,21.1,9.1,21.2,9.1C20.9,8.8,21,8.5,21,8.5c0,0,0-0.1,0.1-0.1c0,0,0.1,0,0.1,0.1
			c0,0,0,0.3,0.1,0.5C21.3,9,21.3,9.1,21.2,9.1C21.2,9.1,21.2,9.1,21.2,9.1z"/>
	</g>
	<g clip-path="url(#SVGID_2_)">
		<path fill="#38C0F0" d="M17.5,6.7C17.5,6.7,17.4,6.7,17.5,6.7c-0.2-0.2-0.3-0.4-0.4-0.6c-0.1-0.3,0.1-0.7,0.3-0.9c0,0,0-0.1,0-0.1
			c-0.1-0.4,0.2-0.8,0.6-0.9c0,0,0,0,0.1,0c0.1-0.3,0.4-0.5,0.7-0.6c0.3,0,0.5,0,0.7,0.2c0.1-0.1,0.3-0.2,0.4-0.2
			c0.2,0,0.4,0,0.6,0.1c0.2,0.1,0.3,0.3,0.3,0.5c0,0,0,0,0,0v2.4c0,0,0,0.1-0.1,0.1s-0.1,0-0.1-0.1V4.3c0-0.2-0.1-0.3-0.2-0.4
			c-0.1-0.1-0.3-0.1-0.5-0.1c-0.1,0-0.3,0.1-0.4,0.2c0,0,0,0-0.1,0c0,0,0,0-0.1,0c-0.2-0.2-0.4-0.3-0.6-0.2c-0.3,0-0.5,0.2-0.6,0.5
			c0,0,0,0.1-0.1,0.1c0,0-0.1,0-0.1,0c-0.3,0.1-0.6,0.4-0.5,0.7c0,0.1,0,0.1,0,0.2c0,0,0,0.1,0,0.1c-0.2,0.2-0.3,0.5-0.3,0.8
			c0,0.2,0.1,0.4,0.3,0.5C17.6,6.6,17.6,6.7,17.5,6.7C17.5,6.7,17.5,6.7,17.5,6.7z"/>
	</g>
	<g clip-path="url(#SVGID_2_)">
		<path fill="#38C0F0" d="M20.7,6.1C20.6,6.1,20.6,6.1,20.7,6.1c-0.1-0.2-0.3-0.3-0.4-0.3c-0.2,0-0.3,0-0.4,0.1c0,0-0.1,0-0.1,0
			c0,0,0-0.1,0-0.1c0.2-0.1,0.4-0.2,0.6-0.1c0.2,0,0.4,0.2,0.5,0.4C20.8,6,20.7,6.1,20.7,6.1C20.7,6.1,20.7,6.1,20.7,6.1z"/>
	</g>
	<g clip-path="url(#SVGID_2_)">
		<path fill="#38C0F0" d="M20,4.6C20,4.6,20,4.6,20,4.6c-0.2,0-0.3-0.1-0.4-0.2c-0.1-0.1-0.2-0.3-0.2-0.4c0,0,0-0.1,0.1-0.1
			c0,0,0.1,0,0.1,0.1c0,0.1,0.1,0.2,0.1,0.3c0.1,0.1,0.2,0.2,0.3,0.2C20,4.5,20.1,4.5,20,4.6C20,4.6,20,4.6,20,4.6z"/>
	</g>
	<g clip-path="url(#SVGID_2_)">
		<path fill="#38C0F0" d="M17.9,5.5c-0.2,0-0.3-0.1-0.5-0.2c0,0,0-0.1,0-0.1c0,0,0.1,0,0.1,0c0.1,0.1,0.3,0.1,0.4,0.1
			c0.1,0,0.3-0.1,0.4-0.2c0,0,0.1,0,0.1,0c0,0,0,0.1,0,0.1C18.3,5.3,18.2,5.4,17.9,5.5C17.9,5.5,17.9,5.5,17.9,5.5z"/>
	</g>
	<g clip-path="url(#SVGID_2_)">
		<path fill="#38C0F0" d="M18.8,5.9C18.8,5.9,18.8,5.9,18.8,5.9C18.7,5.9,18.7,5.9,18.8,5.9c-0.1-0.3,0-0.5,0.2-0.6
			C19.1,5.1,19.3,5,19.5,5c0,0,0.1,0,0.1,0.1c0,0,0,0.1-0.1,0.1c-0.2,0-0.3,0.1-0.5,0.2C18.9,5.5,18.9,5.7,18.8,5.9
			C18.9,5.9,18.8,5.9,18.8,5.9z"/>
	</g>
	<g clip-path="url(#SVGID_2_)">
		<path fill="#38C0F0" d="M18.9,4.8C18.9,4.8,18.9,4.8,18.9,4.8C18.9,4.8,18.9,4.7,18.9,4.8c-0.1-0.2-0.2-0.4-0.3-0.5
			c0,0-0.1-0.1,0-0.1c0,0,0.1-0.1,0.1,0C18.9,4.3,19,4.5,18.9,4.8C19,4.7,19,4.8,18.9,4.8z"/>
	</g>
	<g clip-path="url(#SVGID_2_)">
		<path fill="#38C0F0" d="M20.6,5.2c-0.1,0-0.1,0-0.2,0c-0.1,0-0.2-0.1-0.2-0.2c0,0,0-0.1,0-0.1c0,0,0.1,0,0.1,0
			C20.4,5,20.4,5,20.5,5c0.1,0,0.1,0,0.2,0c0,0,0.1,0,0.1,0.1c0,0,0,0.1-0.1,0.1C20.7,5.2,20.6,5.2,20.6,5.2z"/>
	</g>
	<g clip-path="url(#SVGID_2_)">
		<polygon fill="#0F1027" points="16.8,10.4 16.6,10.4 16.3,9.9 16.3,10.4 16,10.4 16,9.6 16.3,9.6 16.6,10.1 16.6,9.6 16.8,9.6 		
			"/>
	</g>
	<g clip-path="url(#SVGID_2_)">
		<polygon fill="#0F1027" points="17.9,10.4 17.3,10.4 17.3,9.6 17.9,9.6 17.9,9.7 17.5,9.7 17.5,9.9 17.8,9.9 17.8,10.1 17.5,10.1 
			17.5,10.3 17.9,10.3 		"/>
	</g>
	<g clip-path="url(#SVGID_2_)">
		<path fill="#0F1027" d="M18.4,9.6h0.5c0.1,0,0.1,0,0.2,0.1c0,0,0.1,0.1,0.1,0.2v0.1c0,0.1,0,0.1,0,0.2c0,0-0.1,0.1-0.1,0.1
			l0.2,0.3h-0.2l-0.1-0.3h-0.2v0.3h-0.2V9.6z M18.9,9.8C18.9,9.8,18.9,9.7,18.9,9.8l-0.3-0.1V10h0.2c0,0,0.1,0,0.1-0.1V9.8z"/>
	</g>
	<g clip-path="url(#SVGID_2_)">
		<path fill="#0F1027" d="M20,9.6c0.1,0,0.2,0,0.2,0.1c0,0,0.1,0.1,0.1,0.2v0.3c0,0.1,0,0.2-0.1,0.2c0,0-0.1,0.1-0.2,0.1h-0.5V9.6
			H20z M20.1,9.9c0-0.1,0-0.1-0.1-0.1h-0.2v0.5H20c0.1,0,0.1,0,0.1-0.1V9.9z"/>
	</g>
	<g clip-path="url(#SVGID_2_)">
		<polygon fill="#0F1027" points="21.4,9.6 21.5,10.1 21.7,9.6 21.9,9.6 21.7,10.4 21.4,10.4 21.3,9.9 21.1,10.4 20.9,10.4 
			20.7,9.6 20.9,9.6 21,10.1 21.2,9.6 		"/>
	</g>
	<g clip-path="url(#SVGID_2_)">
		<path fill="#0F1027" d="M22.4,10.4h-0.2l0.3-0.9h0.2l0.3,0.9h-0.2l-0.1-0.2h-0.3L22.4,10.4z M22.5,10.1h0.2l-0.1-0.3L22.5,10.1z"
			/>
	</g>
	<g clip-path="url(#SVGID_2_)">
		<path fill="#0F1027" d="M23.4,9.6h0.5c0.1,0,0.1,0,0.2,0.1c0,0,0.1,0.1,0.1,0.2v0.1c0,0.1,0,0.1,0,0.2c0,0-0.1,0.1-0.1,0.1
			l0.2,0.3H24l-0.1-0.3h-0.2v0.3h-0.2V9.6z M24,9.8C24,9.8,23.9,9.7,24,9.8l-0.3-0.1V10h0.2c0,0,0.1,0,0.1-0.1V9.8z"/>
	</g>
	<g clip-path="url(#SVGID_2_)">
		<polygon fill="#0F1027" points="25.3,10.4 24.6,10.4 24.6,9.6 25.3,9.6 25.3,9.7 24.8,9.7 24.8,9.9 25.2,9.9 25.2,10.1 24.8,10.1 
			24.8,10.3 25.3,10.3 		"/>
	</g>
	<g clip-path="url(#SVGID_2_)">
		<polygon fill="#38C0F0" points="19.8,11.9 19.6,11.9 19.6,11.6 19.3,11.6 19.3,11.9 19.1,11.9 19.1,11.1 19.3,11.1 19.3,11.4 
			19.6,11.4 19.6,11.1 19.8,11.1 		"/>
	</g>
	<g clip-path="url(#SVGID_2_)">
		<path fill="#38C0F0" d="M20.8,11.1H21v0.6c0,0.1,0,0.1-0.1,0.2c0,0-0.1,0.1-0.2,0.1h-0.3c-0.1,0-0.1,0-0.2-0.1
			c0,0-0.1-0.1-0.1-0.2v-0.6h0.2v0.6c0,0,0,0.1,0.1,0.1h0.2c0,0,0.1,0,0.1-0.1V11.1z"/>
	</g>
	<g clip-path="url(#SVGID_2_)">
		<path fill="#38C0F0" d="M21.5,11.1H22c0.1,0,0.1,0,0.2,0.1c0,0,0.1,0.1,0.1,0.2c0,0,0,0.1,0,0.1c0,0,0,0.1-0.1,0.1c0,0,0,0,0.1,0
			c0,0,0,0,0,0c0,0,0,0,0,0.1s0,0.1,0,0.1c0,0.1,0,0.1-0.1,0.2c0,0-0.1,0.1-0.2,0.1h-0.5V11.1z M22,11.3C22,11.3,22,11.2,22,11.3
			l-0.3-0.1v0.2L22,11.3C22,11.4,22,11.4,22,11.3L22,11.3z M22.1,11.7C22.1,11.6,22,11.6,22.1,11.7l-0.3-0.1v0.2L22.1,11.7
			C22,11.8,22.1,11.7,22.1,11.7L22.1,11.7z"/>
	</g>
</g>
</svg>
